<?xml version="1.0" standalone="no"?> <!DOCTYPE svg PUBLIC "-//W3C//DTD SVG 20010904//EN" "http://www.w3.org/TR/2001/REC-SVG-20010904/DTD/svg10.dtd"> <svg version="1.0" xmlns="http://www.w3.org/2000/svg" width="600.000000pt" height="183.000000pt" viewBox="0 0 600.000000 183.000000" preserveAspectRatio="xMidYMid meet"> <g transform="translate(0.000000,183.000000) scale(0.066667,-0.066667)" fill="#f7f7f7" stroke="none"> <path d="M1050 2496 c-399 -78 -692 -289 -857 -617 -232 -463 -50 -1025 404 -1244 139 -67 149 -59 26 22 -508 334 -587 1027 -166 1452 506 511 1391 389 1700 -234 63 -127 86 -134 38 -12 -164 416 -710 718 -1145 633z"/> <path d="M1045 2311 c-56 -63 -113 -158 -88 -149 14 5 156 208 146 208 -3 0 -29 -27 -58 -59z"/> <path d="M1316 2324 c18 -28 41 -54 51 -57 10 -3 3 15 -15 40 -47 66 -75 80 -36 17z"/> <path d="M1570 2275 c128 -94 353 -389 327 -431 -8 -13 -275 -66 -285 -56 -4 4 -17 44 -29 88 -50 192 -82 223 -37 36 36 -151 38 -142 -23 -142 -28 0 -56 -8 -62 -17 -8 -13 8 -15 59 -8 51 7 70 4 70 -9 0 -13 4 -13 11 -2 9 13 260 73 310 73 8 0 25 -31 38 -70 42 -125 62 -116 24 11 -12 40 -20 74 -19 76 2 2 30 14 62 27 76 31 62 46 -16 18 l-60 -21 -34 68 c-64 133 -213 301 -338 384 -96 64 -95 46 2 -25z"/> <path d="M1233 2207 c-36 -31 -29 -47 21 -47 41 0 127 -69 117 -95 -8 -21 46 -75 88 -90 20 -7 26 -1 26 26 0 19 14 47 30 62 102 92 -178 235 -282 144z"/> <path d="M527 2125 c-8 -10 -12 -34 -7 -52 6 -25 0 -36 -31 -47 -21 -9 -39 -25 -39 -37 0 -13 -12 -29 -26 -38 -40 -23 -10 -19 52 7 44 18 58 19 73 4 26 -26 -9 -175 -53 -231 -32 -42 -42 -124 -16 -150 8 -8 17 -36 20 -62 3 -26 17 -62 31 -82 22 -30 24 -30 16 -4 -30 95 -22 115 14 39 22 -44 39 -90 39 -101 0 -25 86 -81 124 -81 15 0 53 -17 86 -37 73 -47 75 -47 75 0 0 24 -8 37 -24 37 -16 0 -21 8 -15 23 5 12 13 32 18 45 6 14 1 22 -15 22 -14 0 -29 -10 -34 -22 -11 -29 -56 -29 -80 -1 -45 55 23 175 86 151 12 -5 31 -2 40 6 27 22 84 2 84 -30 0 -15 7 -31 15 -36 9 -6 15 12 15 43 0 44 8 57 45 77 25 12 45 32 45 42 0 23 62 85 86 85 9 0 20 11 25 24 6 16 20 21 43 16 18 -5 50 1 71 13 37 21 37 21 4 21 -21 1 -34 10 -34 25 0 16 -8 21 -23 15 -13 -5 -20 -3 -15 5 17 28 129 26 119 -2 -6 -21 0 -27 30 -27 22 0 39 2 39 5 0 19 -50 100 -61 100 -8 0 -29 17 -47 37 -21 25 -38 33 -49 23 -12 -9 -26 -4 -42 16 -45 52 -86 29 -86 -47 0 -16 -6 -29 -13 -29 -8 0 -17 -13 -21 -30 -10 -37 -41 -40 -41 -3 0 16 -19 36 -48 49 -26 12 -50 30 -53 39 -8 23 100 77 137 68 17 -4 24 0 17 11 -5 9 -3 16 6 16 9 0 16 10 16 23 0 25 27 28 60 6 19 -12 18 -17 -7 -32 -29 -17 -29 -17 0 -28 56 -22 103 -17 82 9 -16 19 -15 21 5 13 34 -13 31 12 -4 42 -78 67 -219 81 -234 24 -7 -28 -19 -36 -57 -37 -26 -1 -36 1 -21 5 44 12 31 60 -19 70 -49 10 -90 0 -90 -22 0 -8 7 -11 15 -5 8 5 15 -1 15 -13 0 -13 8 -26 19 -30 11 -5 9 -8 -7 -9 -14 0 -29 6 -34 14 -6 8 -40 15 -77 15 -38 0 -81 7 -98 16 -22 12 -41 10 -75 -7 -46 -23 -46 -23 -39 14 7 40 -6 48 -32 17z m559 -34 c6 -14 2 -21 -9 -18 -22 8 -35 42 -15 42 8 0 19 -11 24 -24z"/> <path d="M3280 1969 c-3 -6 -11 -35 -17 -64 -6 -29 -41 -179 -77 -334 -120 -512 -98 -543 399 -543 501 -1 509 7 650 611 l80 341 -125 0 c-117 0 -125 -2 -132 -34 -55 -252 -147 -626 -160 -651 -44 -86 -481 -98 -513 -13 -7 18 121 609 147 679 8 21 -240 29 -252 8z"/> <path d="M4605 1955 c-138 -47 -230 -184 -232 -344 -1 -170 89 -214 443 -215 279 -1 320 -23 238 -126 l-31 -40 -342 0 -342 0 -58 -86 c-32 -47 -64 -95 -71 -106 -25 -40 868 -19 945 23 155 83 243 323 160 436 -60 83 -124 100 -395 106 -257 5 -285 12 -285 70 0 86 48 97 404 97 l325 0 60 86 c34 48 66 95 72 105 18 31 -801 25 -891 -6z"/> <path d="M5725 1880 l-67 -102 324 -5 c345 -4 363 -8 363 -78 0 -97 -33 -111 -287 -122 -401 -17 -479 -73 -563 -395 -19 -75 -35 -141 -35 -147 0 -6 219 -11 487 -11 l487 0 10 41 c5 23 15 65 22 94 8 29 14 58 14 64 0 6 -162 11 -359 11 l-359 0 16 46 c28 81 64 92 331 103 332 14 425 66 482 270 77 275 12 321 -467 328 l-333 6 -66 -103z"/> <path d="M6863 1963 c-4 -11 -31 -125 -60 -253 -30 -128 -80 -335 -112 -461 l-58 -229 131 0 130 0 35 156 35 157 294 5 c385 6 461 45 520 269 49 184 19 289 -97 341 -74 33 -807 46 -818 15z m653 -209 c48 -25 40 -126 -15 -180 l-44 -44 -224 0 -225 0 31 120 30 120 209 0 c115 0 222 -7 238 -16z"/> <path d="M7965 1894 c-16 -81 -182 -766 -204 -840 -11 -40 238 -55 253 -15 3 10 26 108 49 217 24 110 47 199 51 198 5 0 81 -98 170 -217 l161 -217 158 0 c86 0 157 5 157 12 0 6 -85 115 -189 241 -104 127 -183 236 -176 242 23 22 459 391 495 419 54 43 46 46 -112 46 l-146 0 -239 -210 c-240 -211 -273 -234 -256 -182 9 28 98 381 98 388 0 2 -57 4 -126 4 l-127 0 -17 -86z"/> <path d="M301 1703 c-51 -138 -63 -250 -39 -386 24 -136 46 -182 28 -57 -18 117 -14 265 9 357 l19 79 55 -8 55 -8 -51 16 c-43 13 -49 21 -41 52 17 65 -3 40 -35 -45z"/> <path d="M1299 1527 c-163 -82 -295 -151 -292 -154 3 -3 48 -22 100 -43 l95 -39 302 156 c176 91 293 160 281 165 -13 4 -60 20 -105 36 l-83 28 -298 -149z"/> <path d="M1645 1395 c-156 -81 -286 -151 -289 -154 -4 -4 58 -31 137 -61 l144 -54 307 159 c169 87 306 160 303 163 -12 11 -276 97 -296 96 -13 0 -151 -67 -306 -149z"/> <path d="M2153 1339 c-50 -29 -178 -99 -285 -155 l-195 -102 -5 -212 c-4 -198 -2 -212 23 -204 381 117 559 180 575 206 21 34 18 523 -4 522 -11 -1 -60 -26 -109 -55z"/> <path d="M578 1241 c4 -55 4 -101 -1 -101 -5 0 -64 14 -130 31 -66 17 -123 28 -127 24 -7 -7 226 -85 256 -85 12 0 30 -25 40 -56 25 -79 100 -225 121 -238 10 -6 14 -5 10 3 -36 68 -102 232 -102 255 0 16 26 22 101 23 l102 2 -109 14 -109 15 -15 62 c-36 144 -45 156 -37 51z"/> <path d="M975 970 l0 -365 57 -26 c69 -31 250 -12 554 59 33 7 34 12 34 223 l0 216 -135 54 c-74 30 -139 54 -144 54 -4 0 -7 -42 -5 -94 4 -102 4 -101 -85 -64 -48 20 -50 23 -54 122 l-4 101 -105 42 c-58 24 -107 43 -109 43 -2 0 -4 -164 -4 -365z"/> <path d="M9 1193 c22 -250 107 -443 267 -602 369 -368 951 -366 1977 8 304 111 311 112 312 28 0 -22 6 -44 13 -48 14 -9 341 332 330 343 -10 10 -465 86 -473 78 -4 -4 7 -35 25 -70 18 -35 30 -64 27 -66 -58 -42 -595 -239 -815 -299 -834 -229 -1442 -21 -1613 550 -50 164 -58 178 -50 78z"/> <path d="M4429 749 c-48 -18 -68 -64 -47 -109 33 -73 148 -62 148 13 0 29 -8 37 -37 37 -45 0 -48 -11 -12 -40 24 -19 22 -20 -18 -17 -70 7 -67 80 3 79 27 0 49 8 49 17 0 24 -47 34 -86 20z"/> <path d="M4920 746 c-78 -39 -42 -161 47 -161 35 0 71 39 67 71 -4 28 -69 47 -69 20 0 -9 7 -16 15 -16 8 0 15 -7 15 -15 0 -25 -71 -17 -81 9 -14 36 21 70 62 62 30 -6 62 12 47 26 -20 17 -71 19 -103 4z"/> <path d="M5216 749 c-47 -27 -61 -72 -35 -111 32 -49 78 -61 122 -31 87 56 3 193 -87 142z m77 -50 c26 -30 4 -69 -38 -69 -38 0 -59 31 -45 68 11 28 61 29 83 1z"/> <path d="M5768 729 c-46 -45 -48 -74 -8 -114 74 -74 196 26 131 108 -35 45 -82 47 -123 6z m90 -54 c0 -27 -10 -39 -34 -42 -37 -6 -58 27 -43 66 15 39 77 20 77 -24z"/> <path d="M7241 755 c-26 -7 -39 -80 -14 -80 7 0 25 -11 41 -23 28 -23 28 -24 -12 -17 -53 8 -67 -13 -25 -36 24 -13 42 -13 69 0 48 21 40 62 -18 91 l-44 22 41 5 c45 6 54 25 17 39 -13 5 -25 8 -26 7 -1 -1 -14 -5 -29 -8z"/> <path d="M7698 742 c-82 -58 -3 -190 85 -141 54 31 62 107 15 140 -43 30 -58 30 -100 1z m95 -67 c0 -45 -73 -64 -88 -23 -16 41 6 70 48 65 31 -4 40 -13 40 -42z"/> <path d="M8141 753 c-23 -5 -27 -18 -23 -83 l5 -77 56 -5 c43 -4 56 1 56 19 0 15 -14 23 -37 23 -21 0 -38 7 -38 15 0 8 14 15 30 15 17 0 30 7 30 15 0 8 -13 15 -30 15 -16 0 -30 7 -30 15 0 8 17 15 38 15 20 0 37 6 37 13 0 16 -57 28 -94 20z"/> <path d="M3723 672 c4 -72 8 -80 42 -84 53 -6 98 30 83 66 -7 16 -13 42 -14 59 -1 23 -14 31 -59 34 l-57 5 5 -80z m80 33 c-6 -8 -19 -15 -31 -15 -12 0 -22 7 -22 15 0 8 14 15 31 15 17 0 27 -7 22 -15z m7 -60 c0 -8 -13 -15 -30 -15 -16 0 -30 7 -30 15 0 8 14 15 30 15 17 0 30 -7 30 -15z"/> <path d="M3900 676 c0 -42 7 -76 15 -76 8 0 15 10 15 23 0 32 35 27 57 -9 10 -16 26 -26 34 -21 8 5 9 17 3 27 -6 10 -11 41 -11 70 0 50 -3 53 -57 57 l-56 5 0 -76z m86 25 c-3 -10 -15 -18 -26 -18 -11 0 -23 8 -26 18 -4 11 7 19 26 19 19 0 30 -8 26 -19z"/> <path d="M4083 671 c2 -43 11 -77 19 -75 8 2 14 18 13 34 -1 17 -2 50 -3 75 -1 25 -9 45 -18 45 -9 0 -14 -31 -11 -79z"/> <path d="M4173 671 c5 -86 30 -105 42 -34 l8 45 35 -49 c19 -26 41 -45 48 -40 19 12 18 157 -1 157 -8 0 -15 -22 -15 -49 l-1 -48 -41 48 c-60 73 -80 65 -75 -30z"/> <path d="M4590 667 c0 -52 6 -80 15 -74 8 5 15 42 15 83 0 41 -7 74 -15 74 -8 0 -15 -38 -15 -83z"/> <path d="M4680 676 c0 -41 7 -78 15 -83 9 -6 15 13 15 47 1 54 2 56 23 28 77 -104 97 -102 97 8 0 56 -6 74 -22 74 -15 0 -23 -15 -24 -41 l0 -41 -34 41 c-51 62 -70 53 -70 -33z"/> <path d="M5390 672 c2 -74 40 -129 40 -58 0 20 10 31 28 31 39 0 66 37 55 74 -8 24 -23 31 -68 31 l-58 0 3 -78z m85 26 c0 -13 -10 -23 -22 -23 -13 0 -23 10 -23 23 0 12 10 22 23 22 12 0 22 -10 22 -22z"/> <path d="M5565 677 c0 -77 26 -119 40 -64 4 17 23 32 40 35 64 9 44 94 -24 99 l-56 5 0 -75z m86 24 c-9 -27 -51 -31 -51 -4 0 13 13 23 29 23 16 0 26 -8 22 -19z"/> <path d="M5955 676 c0 -77 26 -117 40 -63 11 40 16 40 50 -2 31 -38 55 -28 32 14 -9 19 -9 37 0 55 22 39 -10 70 -71 70 l-51 0 0 -74z m87 26 c-10 -28 -42 -32 -42 -6 0 13 11 24 24 24 13 0 21 -8 18 -18z"/> <path d="M6120 735 c0 -8 10 -15 22 -15 14 0 23 -20 26 -64 2 -35 11 -63 20 -63 8 0 17 28 19 63 3 44 12 64 26 64 12 0 22 7 22 15 0 8 -30 15 -67 15 -38 0 -68 -7 -68 -15z"/> <path d="M6300 682 c0 -79 44 -115 103 -83 34 18 49 151 17 151 -8 0 -15 -27 -15 -60 0 -50 -5 -60 -30 -60 -25 0 -30 10 -30 60 0 43 -6 60 -22 60 -17 0 -23 -18 -23 -68z"/> <path d="M6498 671 c5 -84 29 -106 42 -36 l8 43 34 -47 c45 -60 63 -47 63 45 0 56 -6 74 -22 74 -15 0 -23 -15 -23 -41 l-1 -41 -31 41 c-50 67 -75 54 -70 -38z"/> <path d="M6705 668 c0 -46 7 -83 15 -83 8 0 15 37 15 83 0 45 -7 82 -15 82 -8 0 -15 -37 -15 -82z"/> <path d="M6780 735 c0 -8 10 -15 22 -15 14 0 23 -20 26 -64 2 -35 11 -63 20 -63 8 0 17 28 19 63 3 44 12 64 26 64 12 0 22 7 22 15 0 8 -30 15 -67 15 -38 0 -68 -7 -68 -15z"/> <path d="M6960 668 c0 -46 7 -83 15 -83 8 0 15 37 15 83 0 45 -7 82 -15 82 -8 0 -15 -37 -15 -82z"/> <path d="M7053 671 c4 -78 5 -78 53 -78 58 0 67 27 12 34 -49 6 -50 33 0 33 20 0 37 7 37 15 0 8 -17 15 -37 15 -21 0 -38 7 -38 15 0 8 17 15 38 15 20 0 37 7 37 15 0 8 -24 15 -53 15 l-54 0 5 -79z"/> <path d="M7470 666 c0 -60 5 -82 19 -77 10 4 18 21 17 39 -1 24 8 32 34 32 27 0 35 -8 35 -37 0 -21 7 -38 15 -38 8 0 15 37 15 83 0 45 -7 82 -15 82 -8 0 -15 -13 -15 -30 0 -20 -10 -30 -30 -30 -20 0 -30 10 -30 30 0 17 -10 30 -22 30 -18 0 -23 -19 -23 -84z"/> <path d="M7890 709 c0 -23 -4 -57 -9 -75 -7 -25 -3 -34 15 -34 16 0 24 14 25 41 l1 42 15 -42 c9 -22 24 -41 34 -41 10 0 26 19 35 41 l16 42 1 -42 c1 -22 10 -41 21 -41 13 0 17 22 13 75 -6 88 -36 101 -66 27 l-20 -48 -20 48 c-24 60 -61 64 -61 7z"/> <path d="M3120 683 c0 -19 35 -23 225 -23 190 0 225 4 225 23 0 19 -35 22 -225 22 -190 0 -225 -3 -225 -22z"/> <path d="M8381 696 c-28 -28 25 -36 231 -36 174 0 224 4 219 19 -6 20 -431 36 -450 17z"/> </g> </svg>