<?xml version="1.0" standalone="no"?>
<!DOCTYPE svg PUBLIC "-//W3C//DTD SVG 20010904//EN"
 "http://www.w3.org/TR/2001/REC-SVG-20010904/DTD/svg10.dtd">
<svg version="1.0" xmlns="http://www.w3.org/2000/svg"
 width="600.000000pt" height="183.000000pt" viewBox="0 0 600.000000 183.000000"
 preserveAspectRatio="xMidYMid meet">
<g transform="translate(0.000000,183.000000) scale(0.100000,-0.100000)"
fill="#000000" stroke="none">
<path d="M700 1659 c-168 -26 -313 -100 -435 -223 -166 -167 -238 -398 -190
-602 42 -181 177 -346 343 -420 79 -36 85 -29 13 14 -139 81 -263 254 -296
408 -31 148 -17 260 52 404 38 80 59 108 127 175 65 65 100 90 176 128 133 65
205 80 360 74 150 -5 240 -33 353 -106 123 -81 198 -166 251 -286 15 -33 24
-47 21 -30 -19 90 -111 226 -207 306 -70 58 -192 121 -281 143 -78 20 -208 27
-287 15z m-613 -671 c-3 -8 -6 -5 -6 6 -1 11 2 17 5 13 3 -3 4 -12 1 -19z m23
-122 c0 -3 -4 -8 -10 -11 -5 -3 -10 -1 -10 4 0 6 5 11 10 11 6 0 10 -2 10 -4z
m38 -151 c-3 -3 -9 2 -12 12 -6 14 -5 15 5 6 7 -7 10 -15 7 -18z"/>
<path d="M709 1553 c-43 -46 -85 -113 -70 -113 6 0 20 18 31 40 11 22 34 55
51 75 41 46 32 45 -12 -2z"/>
<path d="M816 1581 c-3 -5 1 -14 8 -20 10 -9 16 -9 21 -1 4 6 1 9 -7 8 -7 -2
-12 3 -10 10 2 14 -4 16 -12 3z"/>
<path d="M879 1547 c18 -27 35 -46 38 -43 6 6 -29 57 -53 77 -10 8 -3 -8 15
-34z"/>
<path d="M659 1578 c-5 -18 -6 -38 -1 -34 7 8 12 36 6 36 -2 0 -4 -1 -5 -2z"/>
<path d="M917 1569 c7 -7 15 -10 18 -7 3 3 -2 9 -12 12 -14 6 -15 5 -6 -5z"/>
<path d="M1013 1538 c70 -38 163 -135 218 -229 21 -36 39 -70 39 -76 0 -5 -45
-19 -100 -30 l-100 -20 -6 26 c-17 75 -38 142 -46 148 -6 3 -8 -2 -4 -13 13
-44 36 -139 36 -151 0 -8 -14 -13 -39 -13 -22 0 -43 -5 -47 -11 -5 -9 7 -10
44 -5 39 5 52 4 52 -6 0 -9 3 -10 8 -2 8 13 200 56 213 48 5 -3 16 -30 25 -60
9 -31 18 -53 21 -50 3 2 -2 29 -11 59 -9 30 -16 57 -16 60 0 3 20 13 45 23 25
9 43 19 41 22 -3 2 -24 -3 -46 -12 -41 -16 -60 -14 -60 6 0 6 -25 48 -55 93
-59 89 -144 174 -206 205 -63 33 -68 22 -6 -12z"/>
<path d="M760 1536 c0 -2 8 -10 18 -17 15 -13 16 -12 3 4 -13 16 -21 21 -21
13z"/>
<path d="M819 1469 c-22 -19 -15 -29 18 -29 33 0 84 -40 78 -60 -5 -17 27 -52
58 -63 13 -5 17 -1 17 21 0 16 8 34 20 42 11 8 20 19 20 24 0 8 -29 37 -74 74
-22 18 -113 12 -137 -9z m86 -9 c3 -5 12 -7 19 -4 7 3 19 -2 26 -10 7 -9 17
-13 23 -9 5 3 7 1 3 -5 -3 -5 0 -12 6 -15 10 -3 9 -8 -2 -22 -13 -17 -13 -18
0 -11 9 4 8 2 -2 -7 -10 -8 -15 -17 -11 -20 3 -4 4 -7 1 -7 -3 0 -13 10 -24
22 -12 13 -13 18 -4 13 11 -6 11 -4 -2 11 -12 14 -14 24 -6 37 9 17 8 18 -11
8 -15 -9 -21 -9 -21 -1 0 6 -4 9 -8 6 -5 -3 -9 1 -9 9 0 17 13 20 22 5z"/>
<path d="M352 1421 c-9 -5 -11 -17 -7 -34 6 -22 3 -28 -19 -37 -14 -5 -26 -16
-26 -24 0 -8 -9 -18 -20 -21 -11 -3 -20 -11 -20 -16 0 -6 3 -8 8 -6 4 2 24 12
45 22 33 15 40 16 52 4 12 -12 12 -23 0 -71 -7 -31 -22 -70 -34 -87 -22 -31
-28 -80 -11 -97 5 -5 11 -24 13 -41 2 -17 11 -42 21 -55 15 -20 16 -20 11 -3
-4 11 -9 34 -12 50 -4 24 0 20 21 -20 14 -27 26 -58 26 -68 0 -18 54 -57 81
-57 22 0 82 -30 96 -49 10 -14 12 -11 13 17 0 26 -4 32 -21 32 -19 0 -19 1 -5
22 9 12 16 26 16 30 0 14 -31 8 -36 -7 -9 -23 -51 -19 -59 5 -16 50 23 111 62
96 9 -4 21 -2 27 3 21 17 56 1 56 -25 0 -13 5 -24 10 -24 6 0 10 16 10 35 0
28 5 37 30 50 17 9 30 20 30 25 0 13 41 60 52 60 4 0 17 9 28 20 21 21 46 28
34 9 -4 -8 1 -9 17 -4 35 11 47 25 21 25 -13 0 -22 6 -22 15 0 13 -4 14 -21 5
-11 -7 -23 -9 -26 -7 -8 9 30 24 76 30 32 4 40 2 32 -6 -18 -18 -13 -27 14
-27 14 0 25 2 25 3 0 17 -35 67 -50 72 -10 3 -22 15 -25 26 -7 21 -20 25 -30
8 -5 -7 -14 -3 -26 10 -26 27 -46 27 -54 -1 -12 -43 -36 -88 -46 -88 -6 0 -9
8 -7 18 2 12 -8 22 -34 34 -21 9 -38 22 -38 27 0 6 18 20 40 31 24 12 40 16
40 9 0 -6 6 -9 13 -6 6 2 11 10 10 16 -2 6 2 11 7 11 6 0 10 7 10 15 0 16 9
19 34 9 23 -9 20 -20 -6 -29 -23 -8 -23 -8 2 -12 14 -3 29 -8 34 -13 5 -5 15
-6 22 -3 12 4 12 8 2 21 -11 13 -10 15 4 9 10 -3 20 -2 23 3 3 5 -4 11 -15 15
-11 3 -20 10 -20 15 0 19 -139 39 -141 20 -1 -5 -2 -16 -3 -22 -1 -17 -104
-24 -119 -9 -6 6 -30 11 -54 11 -24 0 -52 5 -62 11 -14 9 -25 8 -51 -5 -42
-20 -41 -21 -30 9 10 26 4 31 -18 16z m377 -24 c6 -8 8 -17 4 -20 -7 -8 -33
11 -33 24 0 13 16 11 29 -4z m-295 -29 c-5 -7 -1 -9 9 -5 9 3 19 2 22 -3 5 -9
17 -8 64 6 16 5 22 4 18 -3 -9 -14 37 -22 57 -11 10 6 16 5 16 -2 0 -6 5 -8
10 -5 19 11 10 -4 -22 -42 -18 -20 -28 -34 -21 -30 7 5 26 1 43 -8 25 -13 30
-21 25 -38 -4 -12 -3 -17 2 -11 10 14 53 0 53 -18 0 -8 5 -6 11 5 5 9 16 17
24 17 8 0 17 5 21 12 5 7 2 9 -7 4 -9 -5 -8 -3 2 6 8 7 18 21 22 32 6 14 10
16 21 7 7 -6 16 -8 19 -4 4 3 7 1 7 -6 0 -7 4 -10 9 -7 5 3 12 -1 15 -10 4
-11 2 -15 -8 -11 -8 3 -20 -1 -27 -9 -7 -8 -18 -13 -25 -10 -7 2 -20 -5 -31
-17 l-18 -22 24 20 24 20 -8 -25 c-4 -14 -12 -27 -16 -28 -5 -2 -6 -9 -2 -15
3 -7 -3 -4 -14 6 -14 12 -23 15 -28 7 -3 -6 -1 -9 6 -8 6 2 14 -3 17 -11 2 -8
0 -11 -5 -8 -5 3 -17 -5 -27 -18 -10 -14 -22 -22 -26 -20 -5 3 -6 -5 -2 -17 3
-14 2 -19 -6 -14 -7 4 -12 2 -12 -4 0 -6 -4 -8 -10 -5 -5 3 -10 -1 -10 -9 0
-12 -11 -16 -42 -17 -24 -1 -52 -3 -63 -5 -11 -2 -30 -4 -41 -6 -12 -1 -20 -7
-17 -14 2 -6 -3 -14 -11 -17 -9 -4 -16 -18 -16 -32 0 -15 -4 -24 -10 -20 -5 3
-10 1 -10 -4 0 -6 4 -11 8 -11 5 0 9 -7 9 -15 0 -9 -4 -14 -9 -13 -5 2 -8 6
-6 10 2 3 -4 14 -13 24 -9 11 -20 29 -23 42 -4 12 -11 22 -16 22 -4 0 -7 12
-5 26 1 17 -2 24 -11 20 -26 -10 -45 54 -23 81 6 6 7 18 3 24 -4 7 -3 9 3 6
17 -10 39 21 25 35 -8 8 -8 17 1 32 20 37 16 90 -7 103 -19 11 -19 12 -4 18
10 4 16 11 13 15 -3 4 2 11 11 14 8 3 12 2 9 -4 -3 -6 1 -7 9 -4 9 3 13 11 9
17 -3 6 -1 7 6 3 6 -4 8 -12 5 -18z"/>
<path d="M573 1423 c-7 -2 -13 -9 -13 -14 0 -5 6 -8 13 -6 6 1 11 -3 10 -10
-4 -20 65 -12 70 9 4 14 1 17 -18 12 -12 -3 -26 -1 -29 5 -8 12 -14 12 -33 4z"/>
<path d="M2181 1283 c-32 -121 -101 -434 -101 -457 0 -51 26 -94 72 -118 41
-22 54 -23 238 -23 218 0 249 6 311 62 49 44 58 71 123 346 l53 227 -84 0
c-45 0 -83 -2 -83 -5 0 -19 -102 -434 -111 -451 -18 -35 -53 -44 -180 -44
-121 0 -152 7 -163 35 -3 8 17 111 44 229 28 118 50 220 50 225 0 7 -30 11
-80 11 l-79 0 -10 -37z m137 2 c7 -5 -21 -105 -28 -100 -4 3 -8 -5 -8 -18 1
-48 -10 -120 -18 -126 -5 -3 -10 -15 -11 -26 -1 -11 -5 -33 -8 -50 -15 -87
-17 -116 -6 -128 6 -8 7 -18 3 -22 -4 -5 -1 -5 6 -1 7 4 14 1 17 -6 4 -10 37
-13 143 -12 132 2 182 10 197 34 3 5 11 8 16 5 5 -4 9 -3 10 2 5 47 7 63 14
96 4 20 10 37 14 37 3 0 7 19 8 43 2 23 7 43 13 45 5 2 10 17 10 32 0 16 5 32
10 35 6 3 10 11 10 16 0 6 -5 7 -11 4 -7 -5 -7 -2 0 11 6 11 15 45 22 77 l11
59 39 -4 c21 -2 39 0 39 4 0 4 7 5 15 2 8 -4 15 -13 15 -21 0 -8 -3 -12 -7
-10 -5 3 -9 -7 -9 -21 -4 -73 -8 -91 -17 -85 -6 3 -7 1 -3 -5 7 -11 -27 -165
-47 -212 -6 -14 -9 -31 -8 -39 5 -26 -30 -100 -56 -121 -14 -11 -23 -20 -19
-20 10 0 -17 -26 -29 -28 -5 -1 -30 -6 -55 -11 -64 -14 -346 -13 -395 1 -22 6
-43 12 -47 12 -13 2 -39 46 -33 56 3 6 1 10 -4 10 -6 0 -11 5 -11 11 0 5 5 7
11 3 7 -4 7 1 -1 16 -9 16 -9 20 -1 15 8 -5 10 1 6 18 -4 14 -2 28 4 31 6 4
11 18 11 32 0 14 7 53 15 87 8 34 24 108 37 165 15 67 27 102 36 102 7 0 11 4
8 9 -5 7 83 3 92 -4z"/>
<path d="M2606 812 c-3 -5 1 -9 9 -9 8 0 12 4 9 9 -3 4 -7 8 -9 8 -2 0 -6 -4
-9 -8z"/>
<path d="M2130 780 c0 -5 5 -10 11 -10 5 0 7 5 4 10 -3 6 -8 10 -11 10 -2 0
-4 -4 -4 -10z"/>
<path d="M3095 1311 c-84 -21 -146 -82 -171 -167 -29 -102 -2 -167 82 -196 38
-13 84 -17 201 -18 124 0 154 -3 167 -16 22 -22 20 -41 -9 -69 l-24 -25 -224
0 -224 0 -47 -71 -47 -70 293 3 c258 3 298 6 336 22 83 36 132 122 132 231 0
40 -5 52 -33 80 -43 43 -103 55 -275 55 -143 0 -162 5 -162 42 0 11 11 30 25
43 24 25 24 25 242 25 l218 1 48 69 48 70 -273 -1 c-150 -1 -286 -4 -303 -8z
m510 -31 c-5 -28 -14 -40 -28 -40 -7 0 -6 4 3 11 13 9 13 10 0 6 -8 -2 -14
-10 -12 -16 1 -6 3 -16 5 -21 1 -7 -72 -12 -219 -13 -196 -2 -224 -4 -241 -19
-22 -20 -38 -24 -27 -6 4 7 3 8 -5 4 -9 -6 -9 -11 -1 -21 7 -8 7 -15 1 -19 -5
-3 -11 -1 -13 6 -3 7 -7 5 -11 -6 -4 -10 -3 -15 3 -11 16 10 11 -17 -7 -39
-10 -12 -11 -16 -4 -9 11 10 18 7 35 -15 12 -15 20 -31 18 -36 -2 -5 3 -4 11
2 8 7 17 9 20 6 3 -4 43 -5 89 -4 117 4 117 4 181 -3 55 -6 115 -31 118 -49 3
-19 5 -24 9 -33 6 -12 4 -61 -3 -90 -9 -32 -37 -95 -43 -95 -3 0 -2 5 2 12 5
7 3 8 -5 4 -7 -5 -10 -14 -7 -22 3 -8 2 -13 -2 -12 -4 0 -28 -9 -54 -21 -45
-21 -60 -22 -307 -21 l-259 1 28 43 c28 40 57 53 76 33 11 -11 36 -8 29 3 -4
6 7 10 24 10 17 0 31 -4 31 -10 0 -5 7 -10 15 -10 8 0 15 5 15 11 0 7 52 9
159 7 88 -2 163 0 167 5 4 4 2 7 -4 7 -7 0 -12 5 -12 11 0 5 4 8 9 5 5 -3 12
1 15 10 3 9 2 12 -5 8 -6 -3 -5 3 2 14 7 12 18 18 24 15 5 -4 1 3 -9 15 -11
12 -16 22 -13 22 11 0 -28 36 -46 43 -9 3 -89 7 -178 8 -145 1 -162 3 -177 20
-9 10 -21 19 -27 19 -5 0 -3 -5 5 -10 9 -6 10 -10 3 -10 -21 0 -24 18 -6 30
16 10 16 10 -4 5 -12 -3 -25 -1 -29 6 -5 8 -3 9 7 4 11 -7 12 -6 3 6 -20 25
-9 113 21 164 20 34 30 43 36 33 7 -10 9 -10 9 3 0 8 17 25 38 36 35 20 53 21
287 23 137 0 251 3 254 5 8 9 10 5 6 -15z"/>
<path d="M3526 1248 c3 -5 10 -6 15 -3 13 9 11 12 -6 12 -8 0 -12 -4 -9 -9z"/>
<path d="M3059 1057 c6 -8 7 -18 3 -22 -4 -5 -1 -5 6 -1 10 6 10 11 1 22 -6 8
-14 14 -16 14 -3 0 0 -6 6 -13z"/>
<path d="M3025 989 c-4 -6 -5 -12 -2 -15 2 -3 7 2 10 11 7 17 1 20 -8 4z"/>
<path d="M3818 1251 l-47 -71 210 0 c126 0 218 -4 230 -10 25 -14 25 -60 0
-91 -18 -23 -27 -24 -173 -30 -264 -11 -319 -50 -374 -264 -13 -49 -24 -93
-24 -97 0 -5 146 -8 324 -8 l324 0 16 65 c9 35 16 67 16 70 0 3 -108 5 -240 5
l-240 0 17 34 c8 19 28 40 42 46 14 7 96 16 181 19 175 8 214 21 268 87 59 71
78 209 35 256 -43 48 -66 52 -299 56 l-220 4 -46 -71z m285 37 c153 0 198 -4
225 -16 38 -19 60 -57 55 -98 -1 -16 -3 -37 -4 -46 0 -10 -4 -18 -9 -18 -5 0
-6 -7 -3 -17 5 -12 3 -14 -7 -8 -9 5 -11 4 -6 -4 4 -6 0 -18 -8 -27 -9 -9 -13
-20 -10 -26 5 -7 2 -8 -6 -3 -10 6 -12 4 -7 -8 5 -12 -1 -19 -18 -23 -14 -3
-22 -10 -19 -15 3 -5 -2 -6 -10 -3 -9 3 -16 2 -16 -4 0 -18 -90 -32 -206 -31
-63 0 -118 -2 -121 -5 -4 -3 -12 -1 -20 6 -11 9 -13 8 -11 -2 2 -7 -3 -15 -11
-18 -9 -3 -11 0 -6 8 5 9 4 11 -3 6 -7 -4 -12 -13 -12 -21 0 -8 -5 -17 -12
-21 -7 -5 -8 -2 -3 7 5 8 4 11 -1 6 -5 -5 -9 -12 -10 -15 0 -4 -6 -20 -13 -36
-9 -24 -9 -32 4 -46 13 -14 41 -16 235 -16 192 1 219 -1 214 -14 -4 -8 -8 -25
-9 -37 -2 -12 -5 -25 -8 -30 -3 -4 -138 -7 -301 -5 l-296 3 4 22 c3 12 9 36
14 52 6 17 13 47 17 68 3 21 10 35 14 32 5 -2 15 3 22 12 10 12 10 14 2 9 -25
-14 -13 10 20 41 60 57 118 73 287 80 63 2 121 5 129 5 24 2 60 39 71 74 9 27
8 38 -5 58 -9 14 -25 28 -36 31 -11 4 -105 7 -209 7 l-189 1 27 39 c15 21 32
36 39 33 7 -2 15 1 19 7 5 7 2 8 -6 3 -9 -5 -11 -4 -6 4 4 6 12 9 17 5 5 -3
96 -6 202 -6z"/>
<path d="M4336 1232 c-3 -5 1 -9 9 -9 8 0 12 4 9 9 -3 4 -7 8 -9 8 -2 0 -6 -4
-9 -8z"/>
<path d="M4267 1009 c7 -7 15 -10 18 -7 3 3 -2 9 -12 12 -14 6 -15 5 -6 -5z"/>
<path d="M4575 1308 c-2 -7 -20 -83 -40 -168 -19 -85 -53 -224 -74 -307 l-39
-153 87 0 86 0 24 105 24 105 177 0 c222 0 264 12 327 93 29 37 55 129 55 191
-1 60 -22 93 -78 121 -35 18 -63 20 -291 23 -205 3 -254 1 -258 -10z m491 -27
c-3 -5 3 -7 14 -4 25 7 90 -36 83 -54 -3 -7 0 -13 6 -13 14 0 14 -65 0 -92 -8
-14 -8 -18 0 -14 6 4 2 -12 -8 -36 -10 -24 -25 -42 -32 -40 -9 2 -10 0 -1 -10
9 -11 3 -21 -26 -46 -20 -18 -40 -33 -44 -33 -4 0 -31 -7 -60 -15 -37 -10 -98
-14 -201 -12 -146 2 -148 1 -171 -23 -14 -15 -21 -34 -19 -47 1 -13 -1 -21 -6
-18 -5 3 -12 -21 -16 -54 l-7 -61 -56 3 c-52 3 -55 4 -56 30 -1 14 1 25 5 22
4 -2 9 15 12 39 8 60 12 75 20 83 4 4 7 1 7 -6 0 -7 3 -10 6 -7 4 4 2 12 -4
20 -12 14 -5 60 8 52 5 -3 12 0 16 6 4 7 3 9 -4 5 -6 -3 -13 -2 -17 4 -3 5 -2
10 3 10 6 0 13 28 17 61 4 35 11 56 15 49 4 -7 8 5 8 29 0 23 7 55 15 71 9 16
13 39 10 50 -3 12 0 20 7 20 7 0 10 6 7 14 -4 10 2 16 16 18 53 9 458 7 453
-1z"/>
<path d="M5126 1198 c3 -5 10 -6 15 -3 13 9 11 12 -6 12 -8 0 -12 -4 -9 -9z"/>
<path d="M4691 1174 c-11 -14 -17 -32 -14 -40 3 -8 1 -20 -4 -27 -23 -28 -31
-73 -17 -91 11 -16 27 -18 115 -17 73 1 105 -2 111 -11 6 -10 8 -10 8 0 0 7
15 12 39 12 57 0 98 27 117 77 18 45 14 69 -17 101 -19 21 -29 22 -169 22
-148 0 -149 0 -169 -26z m315 -4 c25 -10 26 -14 21 -56 -9 -82 -23 -88 -201
-92 l-154 -3 20 80 20 81 134 0 c73 0 145 -5 160 -10z"/>
<path d="M5136 1063 c-6 -14 -5 -15 5 -6 7 7 10 15 7 18 -3 3 -9 -2 -12 -12z"/>
<path d="M4531 914 c0 -11 3 -14 6 -6 3 7 2 16 -1 19 -3 4 -6 -2 -5 -13z"/>
<path d="M4561 834 c0 -11 3 -14 6 -6 3 7 2 16 -1 19 -3 4 -6 -2 -5 -13z"/>
<path d="M5252 1014 c-40 -167 -75 -310 -78 -319 -5 -13 6 -15 79 -15 l85 0
31 128 c17 70 31 135 31 145 0 26 12 20 41 -21 15 -20 63 -85 108 -144 l82
-108 105 0 c57 0 104 3 104 6 0 7 -183 238 -224 282 -31 33 -31 34 -11 50 59
48 345 295 345 298 0 1 -45 2 -99 1 l-99 -2 -161 -138 c-89 -76 -161 -143
-161 -149 0 -6 8 -5 19 3 77 57 140 107 174 140 21 22 43 39 48 39 4 0 13 9
19 20 6 11 17 20 25 20 8 0 15 6 15 14 0 19 22 26 85 26 41 0 53 -3 51 -15 -1
-8 -6 -18 -11 -22 -4 -4 -5 -1 -1 7 4 8 -1 6 -11 -6 -10 -11 -24 -19 -31 -16
-8 2 -10 -2 -5 -14 5 -14 3 -16 -12 -10 -11 4 -16 4 -12 0 3 -4 -14 -20 -38
-35 -25 -16 -45 -31 -45 -35 0 -4 8 -1 18 7 9 7 4 -1 -13 -17 -16 -17 -32 -29
-35 -28 -10 4 -29 -24 -22 -32 4 -5 -6 2 -22 16 l-29 25 15 -25 c14 -23 13
-27 -8 -46 -12 -12 -24 -20 -26 -18 -2 2 -4 -10 -3 -25 0 -16 3 -27 6 -25 7 4
20 -19 25 -45 1 -8 13 -24 25 -35 21 -19 22 -19 8 -1 -20 25 -36 54 -22 40 5
-5 25 -31 45 -56 29 -36 34 -49 25 -58 -9 -10 -8 -11 4 -6 16 6 69 -51 69 -75
0 -6 4 -9 9 -6 5 3 12 -1 15 -10 9 -24 7 -31 -4 -14 -5 8 -10 11 -10 5 0 -6
-24 -9 -60 -7 -48 3 -60 7 -65 23 -4 10 -11 19 -17 19 -6 0 -6 -6 2 -15 7 -9
10 -18 7 -22 -4 -3 -12 7 -19 23 -7 16 -17 32 -23 36 -13 10 -14 30 -1 48 10
13 9 13 -6 1 -10 -7 -18 -9 -18 -4 0 5 -7 18 -16 29 -8 10 -13 12 -9 4 3 -8
-7 0 -24 19 -27 31 -33 69 -7 54 6 -4 5 1 -3 10 -14 18 -22 22 -20 10 3 -21
-2 -33 -12 -28 -6 4 -8 14 -5 22 3 8 2 12 -2 9 -10 -6 -45 21 -39 31 8 13 -36
11 -48 -2 -5 -5 -12 -26 -13 -45 -2 -19 -7 -42 -12 -50 -4 -8 -11 -36 -14 -62
-4 -27 -11 -48 -15 -48 -4 0 -7 -12 -6 -27 0 -27 -2 -28 -57 -30 -32 -1 -58
-1 -58 0 0 17 32 163 39 175 5 9 11 31 14 47 10 65 41 185 48 185 3 0 4 12 2
28 -4 22 -2 24 7 12 10 -13 11 -12 6 4 -8 25 4 87 15 80 5 -3 9 0 9 5 0 6 -4
11 -10 11 -5 0 -6 8 -3 17 4 9 8 12 10 6 4 -11 69 -3 91 11 7 4 13 1 13 -6 1
-14 1 -14 -13 -68 -5 -19 -11 -50 -14 -69 -2 -19 -9 -40 -15 -47 -6 -7 -8 -18
-4 -25 4 -6 2 -14 -4 -18 -8 -5 -7 -12 3 -26 12 -17 17 -4 45 116 18 74 34
141 37 150 4 14 -7 16 -79 16 l-83 -1 -72 -302z m318 -209 c14 -19 14 -19 -2
-6 -10 7 -18 18 -18 24 0 6 1 8 3 6 1 -2 9 -13 17 -24z"/>
<path d="M222 1193 c-45 -85 -65 -249 -41 -353 15 -69 19 -77 28 -61 7 10 25
8 90 -13 45 -14 88 -26 95 -26 8 0 16 -14 20 -30 6 -32 76 -183 82 -177 2 2
-12 39 -30 83 -53 123 -53 124 -14 119 101 -13 129 -14 124 -6 -3 5 -41 11
-85 15 l-78 7 -12 75 c-7 41 -16 72 -20 69 -8 -4 -1 -58 14 -122 l5 -22 -92
25 c-51 14 -98 32 -105 41 -20 25 -27 139 -13 218 16 96 19 99 64 87 21 -6 36
-7 36 -1 0 5 -10 9 -22 9 -41 0 -54 15 -40 46 14 30 9 45 -6 17z"/>
<path d="M862 1016 l-201 -101 71 -27 72 -27 195 101 c108 55 197 102 199 103
1 1 -29 13 -67 27 l-69 24 -200 -100z m249 53 c13 -11 18 -18 12 -14 -7 3 -13
2 -13 -4 0 -6 -7 -7 -17 -4 -12 5 -14 3 -8 -7 5 -9 4 -11 -3 -6 -7 4 -21 9
-33 11 -17 3 -19 1 -9 -10 8 -10 6 -17 -12 -29 -12 -9 -28 -16 -35 -16 -7 0
-13 -6 -13 -12 0 -10 -2 -10 -9 0 -7 11 -9 11 -14 -2 -4 -9 -13 -16 -22 -16
-8 0 -15 -4 -15 -9 0 -5 -7 -12 -16 -15 -10 -4 -13 -2 -8 7 4 6 -2 4 -13 -5
-24 -22 -41 -23 -73 -2 -25 15 -25 15 -4 -3 20 -18 22 -43 3 -43 -6 0 -7 6 -3
13 6 9 4 9 -7 1 -10 -8 -18 -7 -30 6 -15 15 -13 19 19 40 19 13 43 23 53 23
10 -1 19 3 19 8 0 11 49 33 68 30 6 -1 12 2 12 6 0 5 9 14 21 21 17 11 20 11
13 0 -4 -7 2 -5 13 5 11 9 25 17 32 17 7 0 9 5 5 13 -5 7 0 6 11 -3 10 -8 16
-10 12 -3 -7 11 6 21 29 22 7 1 22 -8 35 -20z"/>
<path d="M1070 1069 c0 -5 5 -7 10 -4 6 3 10 8 10 11 0 2 -4 4 -10 4 -5 0 -10
-5 -10 -11z"/>
<path d="M5495 1061 c-3 -5 0 -13 6 -17 7 -4 9 -3 5 4 -3 5 0 13 6 15 9 4 10
6 1 6 -6 1 -14 -3 -18 -8z"/>
<path d="M5695 1051 c-3 -5 -2 -12 3 -15 5 -3 9 1 9 9 0 17 -3 19 -12 6z"/>
<path d="M1098 931 c-104 -54 -190 -100 -193 -103 -3 -3 37 -22 90 -43 l95
-37 83 43 c45 23 105 54 132 69 28 15 83 45 124 66 l74 38 -98 33 c-55 18
-104 33 -110 33 -5 -1 -94 -45 -197 -99z m234 65 c7 5 8 3 3 -6 -5 -8 -3 -11
6 -8 8 3 27 -1 42 -9 15 -8 33 -11 40 -7 7 4 5 0 -3 -9 -8 -9 -22 -17 -30 -19
-8 -2 -23 -11 -32 -22 -13 -14 -26 -17 -50 -13 -18 3 -27 3 -20 0 21 -9 13
-17 -45 -48 -32 -16 -64 -36 -71 -42 -7 -7 -22 -13 -32 -13 -10 0 -21 -4 -24
-9 -9 -15 -75 -5 -95 13 -11 10 -24 15 -30 12 -5 -4 -13 -1 -16 5 -9 14 25 38
44 31 9 -3 12 -1 7 6 -5 8 0 12 13 12 12 0 21 5 21 11 0 5 5 7 10 4 6 -3 10
-1 10 5 0 7 6 10 13 7 8 -3 20 -1 28 5 11 8 10 9 -4 4 -11 -3 -16 -2 -12 4 3
6 17 10 31 10 17 0 23 4 18 12 -4 6 -3 8 4 4 6 -3 14 -1 18 5 4 8 9 7 15 -2 7
-11 9 -10 9 3 0 9 5 20 12 24 7 5 9 2 4 -7 -4 -8 0 -5 8 5 14 18 21 15 17 -7
-1 -5 3 -6 8 -2 6 3 8 12 5 19 -4 9 3 13 21 11 23 -3 24 -1 13 12 -12 15 -11
15 10 4 12 -6 28 -9 34 -5z"/>
<path d="M1313 923 c0 -9 6 -9 21 -1 30 15 30 16 3 14 -13 0 -24 -6 -24 -13z"/>
<path d="M1115 880 c-3 -6 1 -7 9 -4 18 7 21 14 7 14 -6 0 -13 -4 -16 -10z"/>
<path d="M3709 983 c-13 -16 -12 -17 4 -4 16 13 21 21 13 21 -2 0 -10 -8 -17
-17z"/>
<path d="M5536 967 c3 -10 9 -15 12 -12 3 3 0 11 -7 18 -10 9 -11 8 -5 -6z"/>
<path d="M1310 827 l-195 -103 -3 -143 c-2 -133 -1 -142 15 -137 118 34 215
65 295 93 l96 35 2 179 c0 98 -3 179 -7 179 -4 0 -96 -47 -203 -103z m179 -84
c1 -75 4 -140 7 -144 3 -5 -3 -6 -12 -2 -13 5 -15 3 -9 -7 6 -10 3 -12 -13 -8
-12 4 -20 2 -17 -2 4 -7 -51 -32 -75 -35 -3 0 -11 -4 -18 -9 -7 -4 -20 -5 -28
-2 -10 4 -13 2 -8 -6 5 -8 2 -9 -9 -5 -10 3 -17 3 -17 -2 0 -4 -6 -8 -12 -9
-7 0 -31 -6 -53 -12 -93 -26 -83 -36 -87 86 -3 109 4 139 28 130 8 -3 13 0 11
6 -3 17 59 30 86 18 20 -10 20 -10 5 3 -22 18 -23 31 -2 23 8 -3 12 -2 9 4 -7
11 25 29 43 23 6 -3 12 0 12 7 0 14 71 56 88 52 7 -2 15 4 18 12 3 9 12 12 21
9 11 -4 14 -2 9 5 -4 8 -2 10 8 6 11 -4 14 -32 15 -141z"/>
<path d="M1375 820 c3 -5 8 -10 11 -10 2 0 4 5 4 10 0 6 -5 10 -11 10 -5 0 -7
-4 -4 -10z"/>
<path d="M650 647 l0 -244 38 -17 c49 -22 150 -12 370 39 22 5 23 7 20 151
l-3 145 -85 34 c-46 19 -88 35 -93 35 -5 0 -7 -29 -5 -65 1 -36 2 -65 1 -65
-1 0 -23 10 -47 22 l-45 22 -3 65 -3 65 -69 28 c-38 15 -71 28 -73 28 -1 0 -3
-110 -3 -243z m86 184 c28 -17 31 -24 33 -77 2 -62 16 -84 62 -100 56 -18 109
-4 87 24 -6 6 -6 12 -1 12 10 0 10 40 0 57 -11 17 28 4 52 -18 13 -13 22 -15
27 -8 5 8 10 6 16 -5 5 -9 15 -16 22 -16 18 0 29 -191 12 -202 -8 -6 -7 -8 2
-8 6 0 12 -3 12 -7 -1 -21 -21 -35 -53 -38 -20 -2 -42 -7 -49 -11 -6 -4 -23
-9 -37 -10 -14 -2 -66 -9 -115 -16 -81 -11 -89 -11 -101 5 -10 14 -14 15 -18
5 -4 -10 -6 -9 -7 2 -1 17 -2 411 -1 423 2 12 25 8 57 -12z"/>
<path d="M5564 862 c4 -3 14 -7 22 -8 9 -1 13 0 10 4 -4 3 -14 7 -22 8 -9 1
-13 0 -10 -4z"/>
<path d="M6 799 c15 -166 72 -297 174 -400 250 -253 644 -250 1353 12 167 62
176 63 177 14 1 -54 17 -45 125 70 59 64 106 117 104 119 -6 6 -311 58 -314
54 -2 -2 5 -23 16 -47 11 -24 18 -45 17 -46 -40 -26 -374 -149 -518 -190 -352
-101 -602 -97 -815 13 -142 73 -268 237 -300 388 -18 87 -26 93 -19 13z m1769
-181 c39 -6 80 -12 92 -11 18 0 20 -3 13 -17 -5 -10 -6 -20 -2 -24 3 -4 -1 -4
-11 0 -16 6 -22 -5 -18 -29 1 -5 -3 -6 -8 -3 -5 4 -12 -3 -16 -14 -3 -11 -11
-20 -17 -20 -6 0 -5 7 3 18 13 15 12 16 -4 3 -10 -8 -16 -19 -14 -25 2 -6 -9
-24 -24 -39 -27 -26 -30 -27 -28 -11 0 3 -12 16 -27 29 l-26 23 -45 -20 c-28
-12 -55 -17 -71 -14 -16 4 -22 3 -15 -2 16 -10 -61 -47 -77 -37 -5 3 -10 2
-10 -3 0 -11 -84 -43 -117 -46 -11 0 -19 -5 -16 -10 3 -5 -8 -7 -25 -4 -17 2
-29 1 -26 -4 3 -4 -2 -8 -11 -8 -9 0 -27 -7 -40 -16 -14 -9 -36 -14 -50 -12
-14 3 -25 1 -25 -4 0 -14 -42 -26 -116 -33 -38 -4 -75 -12 -83 -19 -12 -8 -13
-8 -7 2 5 9 -6 12 -46 13 -29 0 -73 4 -98 8 -46 7 -37 8 180 24 14 1 28 6 31
10 12 17 83 26 98 14 9 -8 12 -8 8 -1 -8 14 66 49 87 41 9 -4 16 -2 16 3 0 5
15 13 33 19 17 5 47 14 65 20 24 7 31 7 26 -2 -3 -7 1 -4 9 5 8 10 44 27 80
38 36 11 69 25 73 31 3 6 18 8 33 5 19 -5 22 -4 11 4 -13 9 -13 10 0 11 8 1
19 1 23 0 5 -1 21 8 37 19 15 11 33 20 38 20 17 0 24 37 13 59 -18 33 -24 32
104 9z m-1645 -100 c0 -4 -5 -8 -12 -8 -6 0 -8 3 -5 7 4 3 -1 16 -10 27 -18
21 -18 21 5 2 12 -11 22 -23 22 -28z m24 -32 c6 2 22 -9 34 -26 13 -17 27 -28
32 -25 6 3 7 0 4 -8 -3 -8 0 -18 7 -23 7 -4 10 -3 6 4 -5 6 1 8 14 5 15 -4 19
-11 15 -26 -4 -15 -2 -17 7 -8 16 16 20 15 61 -18 23 -18 44 -27 56 -24 12 3
20 0 20 -6 0 -7 -5 -9 -12 -5 -9 5 -9 2 1 -9 15 -18 26 -23 16 -7 -9 14 22 12
80 -5 27 -9 97 -17 155 -20 59 -2 146 -7 196 -11 l89 -8 -90 -12 c-115 -16
-127 -16 -120 -4 3 6 -1 7 -9 4 -9 -3 -16 -10 -16 -14 0 -5 -28 -6 -63 -4 -82
6 -217 35 -217 47 0 5 -6 4 -14 -2 -11 -9 -16 -9 -22 0 -5 8 -3 9 6 4 9 -5 11
-4 6 4 -4 7 -13 10 -19 8 -7 -2 -24 4 -38 14 -14 10 -30 15 -35 11 -5 -4 -1 3
9 15 12 14 15 23 7 28 -6 3 -9 1 -8 -5 2 -7 -5 -14 -14 -15 -21 -4 -23 5 -5
25 6 8 2 6 -9 -3 -21 -18 -22 -18 -38 5 -9 12 -16 19 -16 15 0 -4 -9 2 -20 13
-12 12 -18 26 -14 32 5 8 1 9 -12 4 -10 -4 -15 -4 -12 0 4 4 -4 15 -17 26 -14
11 -25 25 -24 31 0 9 2 9 5 0 3 -7 11 -10 18 -7z"/>
<path d="M1515 479 c-4 -6 -5 -12 -2 -15 2 -3 7 2 10 11 7 17 1 20 -8 4z"/>
<path d="M1500 440 c-9 -6 -10 -10 -3 -10 6 0 15 5 18 10 8 12 4 12 -15 0z"/>
<path d="M1099 322 c9 -7 10 -11 2 -15 -7 -4 -8 -5 0 -3 15 2 13 20 -3 24 -10
3 -10 2 1 -6z"/>
<path d="M462 291 c-11 -7 -11 -9 0 -14 9 -3 15 1 15 9 0 8 -1 14 -1 14 -1 0
-7 -4 -14 -9z"/>
<path d="M778 263 c7 -3 16 -2 19 1 4 3 -2 6 -13 5 -11 0 -14 -3 -6 -6z"/>
<path d="M2836 833 c-6 -14 -5 -15 5 -6 7 7 10 15 7 18 -3 3 -9 -2 -12 -12z"/>
<path d="M5311 734 c0 -11 3 -14 6 -6 3 7 2 16 -1 19 -3 4 -6 -2 -5 -13z"/>
<path d="M2773 725 c0 -8 4 -12 9 -9 5 3 6 10 3 15 -9 13 -12 11 -12 -6z"/>
<path d="M2806 652 c-3 -5 1 -9 9 -9 8 0 12 4 9 9 -3 4 -7 8 -9 8 -2 0 -6 -4
-9 -8z"/>
<path d="M5506 537 c3 -10 9 -15 12 -12 3 3 0 11 -7 18 -10 9 -11 8 -5 -6z"/>
<path d="M2480 451 l0 -51 34 0 c32 0 63 20 49 33 -3 4 -6 19 -7 34 -1 25 -5
28 -38 31 l-38 3 0 -50z m44 33 c23 -9 20 -24 -4 -24 -11 0 -20 7 -20 15 0 17
2 18 24 9z m20 -53 c3 -5 -1 -12 -10 -15 -25 -10 -34 -7 -34 9 0 16 35 21 44
6z"/>
<path d="M2600 450 c0 -27 5 -50 10 -50 6 0 10 9 10 20 0 26 15 25 34 -2 9
-12 19 -19 23 -15 3 4 2 12 -4 18 -8 8 -9 16 -1 29 18 29 3 50 -37 50 l-35 0
0 -50z m44 34 c23 -9 20 -34 -4 -34 -13 0 -20 7 -20 20 0 22 1 23 24 14z"/>
<path d="M2720 450 c0 -27 5 -50 10 -50 6 0 10 23 10 50 0 28 -4 50 -10 50 -5
0 -10 -22 -10 -50z"/>
<path d="M2784 450 c-1 -37 3 -50 13 -50 11 0 12 9 8 38 l-7 37 26 -30 c14
-16 25 -33 26 -37 0 -5 7 -8 15 -8 11 0 15 12 15 50 0 28 -4 50 -10 50 -5 0
-10 -17 -10 -37 l0 -38 -27 38 c-14 20 -31 37 -37 37 -6 0 -11 -21 -12 -50z"/>
<path d="M2931 486 c-33 -40 14 -104 63 -86 30 10 28 52 -1 56 -13 2 -23 -1
-23 -6 0 -6 7 -10 15 -10 8 0 15 -5 15 -10 0 -17 -29 -23 -45 -10 -34 29 -4
81 34 60 17 -9 21 -8 21 5 0 20 -63 21 -79 1z"/>
<path d="M3060 450 c0 -27 5 -50 10 -50 6 0 10 23 10 50 0 28 -4 50 -10 50 -5
0 -10 -22 -10 -50z"/>
<path d="M3120 450 c0 -27 5 -50 10 -50 6 0 10 17 10 37 l0 38 25 -38 c14 -20
30 -37 35 -37 6 0 10 23 10 50 0 31 -4 50 -11 50 -8 0 -10 -13 -6 -37 l6 -38
-24 30 c-14 17 -25 33 -25 38 0 4 -7 7 -15 7 -11 0 -15 -12 -15 -50z"/>
<path d="M3266 484 c-41 -40 6 -104 62 -83 29 11 31 54 2 56 -22 2 -27 -13 -7
-20 9 -4 9 -7 -1 -18 -9 -10 -17 -11 -30 -3 -42 27 -14 80 36 67 17 -4 23 -2
18 6 -10 16 -62 14 -80 -5z"/>
<path d="M3462 488 c-7 -7 -12 -24 -12 -38 0 -35 17 -50 57 -50 32 0 53 21 53
54 0 38 -70 62 -98 34z m59 -8 c23 -13 25 -43 3 -61 -31 -26 -70 25 -44 56 15
18 16 18 41 5z"/>
<path d="M3600 450 c0 -27 5 -50 10 -50 6 0 10 7 10 15 0 8 9 15 20 15 10 0
24 9 30 21 15 27 -3 49 -41 49 -28 0 -29 -2 -29 -50z m49 31 c16 -10 6 -31
-15 -31 -8 0 -14 9 -14 20 0 22 7 25 29 11z"/>
<path d="M3710 451 c0 -28 5 -51 10 -51 6 0 10 6 10 14 0 7 14 16 31 20 26 5
30 10 27 33 -3 24 -8 28 -40 31 l-38 3 0 -50z m60 13 c0 -8 -9 -14 -20 -14
-19 0 -27 19 -14 33 10 9 34 -4 34 -19z"/>
<path d="M3843 488 c-19 -25 -21 -46 -7 -67 22 -30 69 -28 90 4 15 23 15 27 0
50 -18 27 -66 35 -83 13z m61 -14 c9 -8 16 -19 16 -24 0 -10 -29 -40 -38 -40
-29 1 -44 39 -24 63 19 21 26 21 46 1z"/>
<path d="M3975 450 c0 -35 4 -50 13 -50 7 0 12 7 10 16 -4 25 19 28 27 5 3
-12 13 -21 21 -21 10 0 12 4 7 13 -4 6 -8 28 -8 47 0 33 -2 35 -35 38 l-35 3
0 -51z m54 27 c13 -16 5 -27 -21 -27 -18 0 -25 20 -11 33 10 10 19 8 32 -6z"/>
<path d="M4085 490 c3 -5 13 -10 21 -10 10 0 14 -12 14 -40 0 -23 5 -40 11
-40 7 0 10 15 7 40 -3 33 0 40 14 40 10 0 18 5 18 10 0 6 -21 10 -46 10 -27 0
-43 -4 -39 -10z"/>
<path d="M4200 461 c0 -45 18 -64 57 -59 26 3 28 7 31 51 2 28 -1 47 -7 47 -6
0 -11 -18 -11 -39 0 -43 -9 -55 -34 -45 -11 4 -16 19 -16 45 0 21 -4 39 -10
39 -5 0 -10 -17 -10 -39z"/>
<path d="M4333 450 c-1 -33 3 -50 11 -50 8 0 11 12 8 35 -2 19 -2 35 1 35 3 0
15 -16 27 -35 32 -51 50 -46 50 15 0 58 -17 68 -22 13 l-3 -37 -25 37 c-14 20
-29 37 -35 37 -5 0 -11 -23 -12 -50z"/>
<path d="M4470 450 c0 -27 5 -50 10 -50 6 0 10 23 10 50 0 28 -4 50 -10 50 -5
0 -10 -22 -10 -50z"/>
<path d="M4520 490 c0 -5 7 -10 15 -10 11 0 15 -11 15 -40 0 -26 5 -40 13 -40
9 0 11 12 9 40 -3 31 -1 40 11 40 9 0 19 5 22 10 4 6 -12 10 -39 10 -25 0 -46
-4 -46 -10z"/>
<path d="M4640 450 c0 -27 5 -50 10 -50 6 0 10 23 10 50 0 28 -4 50 -10 50 -5
0 -10 -22 -10 -50z"/>
<path d="M4700 450 l0 -50 41 0 c22 0 38 4 35 9 -3 4 -17 6 -31 3 -18 -3 -25
0 -25 12 0 10 9 16 25 16 14 0 25 5 25 10 0 6 -11 10 -25 10 -14 0 -25 6 -25
14 0 9 8 12 25 8 15 -2 25 0 25 7 0 6 -16 11 -35 11 l-35 0 0 -50z"/>
<path d="M4817 493 c-15 -14 -6 -33 23 -48 35 -18 30 -40 -6 -31 -14 4 -24 2
-24 -4 0 -16 56 -12 71 6 11 14 10 18 -6 30 -10 8 -25 14 -33 14 -7 0 -12 6
-9 13 2 6 14 11 26 10 11 -2 21 2 21 7 0 11 -53 14 -63 3z"/>
<path d="M4980 450 c0 -27 5 -50 10 -50 6 0 10 9 10 20 0 15 7 20 25 20 18 0
25 -5 25 -20 0 -11 5 -20 10 -20 6 0 10 23 10 50 0 28 -4 50 -10 50 -5 0 -10
-9 -10 -20 0 -15 -7 -20 -25 -20 -18 0 -25 5 -25 20 0 11 -4 20 -10 20 -5 0
-10 -22 -10 -50z"/>
<path d="M5126 485 c-20 -20 -21 -59 -2 -74 20 -17 77 -10 90 11 7 11 7 26 0
45 -11 34 -62 44 -88 18z m55 -5 c23 -13 25 -43 3 -61 -31 -26 -70 25 -44 56
15 18 16 18 41 5z"/>
<path d="M5258 450 c-2 -35 1 -50 10 -50 7 0 12 14 13 33 l1 32 10 -32 c6 -18
15 -33 19 -33 5 0 15 15 23 33 l14 32 1 -32 c2 -54 21 -37 21 17 0 61 -21 68
-43 13 l-14 -37 -12 37 c-18 54 -38 48 -43 -13z"/>
<path d="M5412 450 l-1 -50 40 0 c21 0 39 4 39 10 0 5 -13 7 -30 4 -23 -5 -30
-3 -30 10 0 10 9 16 25 16 14 0 25 5 25 10 0 6 -11 10 -25 10 -14 0 -25 6 -25
13 0 9 10 12 30 9 18 -3 30 0 30 7 0 6 -17 11 -39 11 l-39 0 0 -50z"/>
<path d="M2085 450 c4 -6 65 -10 151 -10 89 0 144 4 144 10 0 6 -57 10 -151
10 -97 0 -148 -4 -144 -10z"/>
<path d="M5590 450 c0 -6 55 -10 145 -10 90 0 145 4 145 10 0 6 -55 10 -145
10 -90 0 -145 -4 -145 -10z"/>
</g>
</svg>
